<?xml version="1.0" encoding="UTF-8"?>
<svg width="350px" height="56px" viewBox="0 0 350 56" version="1.1" xmlns="http://www.w3.org/2000/svg" xmlns:xlink="http://www.w3.org/1999/xlink">
    <!-- Generator: Sketch 52.5 (67469) - http://www.bohemiancoding.com/sketch -->
    <title>brand</title>
    <desc>Created with Sketch.</desc>
    <g id="Page-1" stroke="none" stroke-width="1" fill="none" fill-rule="evenodd">
        <g id="brand">
            <polygon id="Path" fill="#142F5E" points="34.445 0.1575 34.445 9.755 25.315 9.755 25.315 18.0725 34.445 18.0725 34.445 27.66 42.7625 27.66 42.7625 9.755 42.7625 0.1575"></polygon>
            <polygon id="Path" fill="#142F5E" points="17.4475 53.4325 0 53.4325 0 35.525 8.32 35.525 8.32 45.1125 17.4475 45.1125"></polygon>
            <path d="M26.6325,27.6325 C26.2906002,27.6325006 25.9627401,27.4965106 25.721215,27.2545165 C25.4796899,27.0125225 25.3443361,26.6843992 25.345,26.3425 L25.345,18.0425 L17.025,18.0425 L17.025,27.235 L8.29,27.235 L8.29,35.555 L16.13,35.555 C16.8414722,35.5549987 17.4186212,36.1310292 17.42,36.8425 L17.42,45.1425 L25.75,45.1425 L25.75,35.95 L34.5,35.95 L34.5,27.6325 L26.6325,27.6325 Z" id="Path" fill="#2860F6"></path>
            <path d="M79.8775,15.0875 C82.0550142,15.7946284 83.9382566,17.200689 85.235,19.0875 C86.316241,20.6120182 87.0812789,22.3376035 87.485,24.1625 C87.8702977,25.870198 88.0706187,27.6144156 88.0825,29.365 C88.0825,33.545 87.2425,37.085 85.5625,39.985 C83.2875,43.895 79.7733333,45.8491667 75.02,45.8475 L61.46,45.8475011 L61.46,14.405 L75.0125,14.405 C76.9625,14.4333333 78.5841667,14.6608333 79.8775,15.0875 Z M68.1725,19.8625 L68.1725,40.3775 L74.54,40.3775 C77.6416667,40.3775 79.8083333,38.8491667 81.04,35.7925 C81.7066667,34.1158333 82.04,32.1158333 82.04,29.7925 C82.04,26.5941667 81.54,24.1383333 80.54,22.425 C79.54,20.7116667 77.54,19.855 74.54,19.855 L68.1725,19.8625 Z" id="Shape" fill="#142F5E" fill-rule="nonzero"></path>
            <path d="M107.575,23.0625 C109.213671,23.80319 110.607279,24.9956049 111.5925,26.5 C112.567,27.9401424 113.200536,29.5834026 113.445,31.305 C113.629612,32.8351121 113.695642,34.3772077 113.6425,35.9175 L96.715,35.9175 C96.81,38.2508333 97.62,39.8858333 99.145,40.8225 C100.155645,41.4270207 101.317819,41.7305734 102.495,41.6975 C103.88,41.6975 105.005,41.3416667 105.87,40.63 C106.389084,40.1862384 106.814098,39.6430702 107.12,39.0325 L113.325,39.0325 C113.158333,40.4108333 112.408333,41.8108333 111.075,43.2325 C108.995,45.4925 106.078333,46.6225 102.325,46.6225 C99.3451207,46.6620469 96.4467733,45.6493073 94.14,43.7625 C91.775,41.8558333 90.5925,38.7541667 90.5925,34.4575 C90.5925,30.4291667 91.66,27.3416667 93.795,25.195 C95.93,23.0483333 98.7008333,21.9741667 102.1075,21.9725 C103.986678,21.9439633 105.850428,22.3155203 107.575,23.0625 Z M98.4825,28.3125 C97.6241667,29.1975 97.085,30.3966667 96.865,31.91 L107.335,31.91 C107.225,30.295 106.685,29.07 105.715,28.235 C104.709757,27.3877135 103.4265,26.9424475 102.1125,26.985 C100.550833,26.985 99.3408333,27.4283333 98.4825,28.315 L98.4825,28.3125 Z" id="Shape" fill="#142F5E" fill-rule="nonzero"></path>
            <path d="M131.7675,30.93 C131.663768,30.0901327 131.363104,29.2866479 130.89,28.585 C130.208333,27.6483333 129.1475,27.1791667 127.7075,27.1775 C125.654167,27.1775 124.25,28.1941667 123.495,30.2275 C123.095,31.3058333 122.895,32.7375 122.895,34.5225 C122.895,36.2258333 123.095,37.5941667 123.495,38.6275 C124.22,40.5625 125.5875,41.5291667 127.5975,41.5275 C129.025833,41.5275 130.038333,41.1441667 130.635,40.3775 C131.272735,39.5052942 131.650628,38.4704227 131.725,37.3925 L137.93,37.3925 C137.770707,39.2958493 137.077469,41.1155988 135.93,42.6425 C134.02,45.2975 131.193333,46.625 127.45,46.625 C123.706667,46.625 120.956667,45.5166667 119.2,43.3 C117.435,41.08 116.5525,38.2041667 116.5525,34.6725 C116.5525,30.6858333 117.528333,27.5833333 119.48,25.365 C121.431667,23.1466667 124.120833,22.0375 127.5475,22.0375 C130.464167,22.0375 132.850833,22.6916667 134.7075,24 C136.564167,25.3083333 137.661667,27.6183333 138,30.93 L131.7675,30.93 Z" id="Path" fill="#142F5E"></path>
            <polygon id="Path" fill="#142F5E" points="147.2675 45.835 141.19 45.835 141.19 14.405 147.2675 14.405"></polygon>
            <path d="M161.47,31.6975 C162.298665,31.624903 163.114536,31.4459321 163.8975,31.165 C164.770833,30.795 165.2075,30.2191667 165.2075,29.4375 C165.2075,28.4841667 164.874167,27.8266667 164.2075,27.465 C163.540833,27.1033333 162.555,26.9225 161.25,26.9225 C159.795,26.9225 158.764167,27.2775 158.1575,27.9875 C157.686093,28.6093348 157.388432,29.3452911 157.295,30.12 L151.4325,30.12 C151.559167,28.0883333 152.13,26.4216667 153.145,25.12 C154.76,23.075 157.53,22.0516667 161.455,22.05 C164.01,22.05 166.28,22.555 168.265,23.565 C170.25,24.575 171.245,26.4758333 171.25,29.2675 L171.25,39.93 C171.25,40.6675 171.265,41.565 171.2925,42.615 C171.334167,43.4116667 171.455,43.9525 171.655,44.2375 C171.885366,44.5472724 172.194371,44.789815 172.55,44.94 L172.55,45.835 L165.9325,45.835 C165.75955,45.4094618 165.631359,44.9670786 165.55,44.515 C165.476667,44.1016667 165.419167,43.6325 165.3775,43.1075 C164.526596,44.0231879 163.543155,44.8060641 162.46,45.43 C161.100136,46.1965012 159.560812,46.5873721 158,46.5625 C155.881667,46.5625 154.131667,45.9616667 152.75,44.76 C151.368333,43.5583333 150.678333,41.8558333 150.68,39.6525 C150.68,36.7941667 151.79,34.7258333 154.01,33.4475 C155.228333,32.7508333 157.018333,32.2508333 159.38,31.9475 L161.47,31.6975 Z M165.185,34.535 C164.81181,34.7666674 164.417557,34.9625387 164.0075,35.12 C163.476014,35.3047339 162.929919,35.4443938 162.375,35.5375 L160.9925,35.7875 C159.694167,36.0158333 158.763333,36.2933333 158.2,36.62 C157.243333,37.1716667 156.764167,38.0316667 156.7625,39.2 C156.7625,40.2383333 157.055,40.9883333 157.64,41.45 C158.249278,41.9209167 159.002746,42.1664786 159.7725,42.145 C161.084732,42.1515541 162.366793,41.7515651 163.4425,41 C164.5625,40.2333333 165.145833,38.8333333 165.1925,36.8 L165.185,34.535 Z" id="Shape" fill="#142F5E" fill-rule="nonzero"></path>
            <path d="M188.6675,22.0475 C188.745,22.0475 188.9175,22.0675 189.19,22.08 L189.19,28.3075 C188.805,28.265 188.465,28.2375 188.165,28.2225 C187.865,28.2075 187.625,28.2 187.44,28.2 C184.995,28.2 183.353333,28.9966667 182.515,30.59 C182.045,31.485 181.81,32.8641667 181.81,34.7275 L181.81,45.835 L175.69,45.835 L175.69,22.585 L181.5,22.585 L181.5,26.6375 C182.44,25.0875 183.2575,24.0283333 183.9525,23.46 C185.090833,22.5066667 186.569167,22.03 188.3875,22.03 C188.5,22.0375 188.5875,22.0425 188.6675,22.0475 Z" id="Path" fill="#142F5E"></path>
            <path d="M207.6175,23.0625 C209.256171,23.80319 210.649779,24.9956049 211.635,26.5 C212.610819,27.9392138 213.243697,29.5829861 213.485,31.305 C213.673059,32.8348352 213.740767,34.37707 213.6875,35.9175 L196.75,35.9175 C196.845,38.2508333 197.655,39.8858333 199.18,40.8225 C200.191259,41.427741 201.354443,41.7313311 202.5325,41.6975 C203.9175,41.6975 205.0425,41.3416667 205.9075,40.63 C206.426682,40.1863323 206.851712,39.6431428 207.1575,39.0325 L213.3625,39.0325 C213.195833,40.4108333 212.445833,41.8108333 211.1125,43.2325 C209.029167,45.4925 206.1125,46.6225 202.3625,46.6225 C199.381765,46.6626374 196.482434,45.6498634 194.175,43.7625 C191.81,41.8558333 190.6275,38.7541667 190.6275,34.4575 C190.6275,30.4291667 191.695,27.3416667 193.83,25.195 C195.965,23.0483333 198.738333,21.975 202.15,21.975 C204.028998,21.9456749 205.892741,22.3163782 207.6175,23.0625 Z M198.525,28.3125 C197.666667,29.1975 197.1275,30.3966667 196.9075,31.91 L207.3775,31.91 C207.264167,30.3033333 206.721667,29.0833333 205.75,28.25 C204.743634,27.4029657 203.459708,26.9577766 202.145,27 C200.591667,26.99 199.385,27.4283333 198.525,28.315 L198.525,28.3125 Z" id="Shape" fill="#142F5E" fill-rule="nonzero"></path>
            <path d="M216.9225,45.8425004 L216.9225,14.405 L227.6725,14.405 C228.545,14.405 229.4025,14.425 230.2475,14.47 C231.082912,14.5118393 231.914227,14.6137694 232.735,14.775 C233.550401,14.9348635 234.347721,15.1760696 235.115,15.495 C235.911236,15.8295924 236.666224,16.2549025 237.365,16.7625 C238.399613,17.5057243 239.275119,18.4483809 239.94,19.535 C240.606023,20.6179885 241.141419,21.7760564 241.535,22.985 C241.924817,24.1791111 242.202682,25.4069031 242.365,26.6525 C242.520147,27.7886248 242.603645,28.933387 242.615,30.08 C242.613054,31.1454962 242.547102,32.2099134 242.4175,33.2675 C242.287987,34.3371341 242.076533,35.3952443 241.785,36.4325 C241.496263,37.4568459 241.108605,38.4506889 240.6275,39.4 C240.14709,40.3466823 239.537053,41.2217708 238.815,42 C238.132288,42.7785082 237.328668,43.4420011 236.435,43.965 C235.583092,44.4574384 234.674856,44.8452433 233.73,45.12 C232.767388,45.4008398 231.780573,45.5908374 230.7825,45.6875 C229.752407,45.7909439 228.717774,45.8426755 227.6825,45.8425 L216.9225,45.8425004 Z M219.8925,43.3100225 L227,43.31 C228.262522,43.3115962 229.523715,43.2280735 230.775,43.06 C232.036709,42.8720647 233.255877,42.4651116 234.3775,41.8575 C235.395332,41.3603871 236.279188,40.6265553 236.955,39.7175 C237.623511,38.8167693 238.159773,37.8250637 238.5475,36.7725 C238.944847,35.6918172 239.223159,34.5710254 239.3775,33.43 C239.537361,32.3170119 239.62089,31.1943907 239.6275,30.07 C239.625888,28.9091475 239.553252,27.749481 239.41,26.5975 C239.269982,25.4472898 238.991289,24.3182496 238.58,23.235 C238.176941,22.1820537 237.617308,21.1959533 236.92,20.31 C236.184284,19.3911116 235.261313,18.6394399 234.2125,18.105 C233.176939,17.5790656 232.051396,17.253362 230.895,17.145 C229.605119,16.9995136 228.308059,16.9268983 227.01,16.9275 L219.8925,16.9274963 L219.8925,43.3100225 Z" id="Shape" fill="#142F5E" fill-rule="nonzero"></path>
            <path d="M248.2275,34.845 C248.221054,36.0526878 248.396349,37.2544723 248.7475,38.41 C249.06221,39.4735301 249.582915,40.4648232 250.28,41.3275 C250.980481,42.1677737 251.859235,42.8415708 252.8525,43.3 C253.976398,43.8148853 255.201456,44.0711737 256.4375,44.05 C258.2925,44.05 259.880833,43.5866667 261.2025,42.66 C262.536568,41.7117231 263.476715,40.3072827 263.845,38.7125 L267,38.7125 C266.667219,39.7871208 266.208181,40.8184884 265.6325,41.785 C265.06989,42.7217986 264.352173,43.5561763 263.51,44.2525 C262.613012,44.980026 261.589094,45.5352136 260.49,45.89 C259.177343,46.2998575 257.807445,46.496522 256.4325,46.4725 C254.4825,46.4725 252.8,46.1583333 251.385,45.53 C250.033926,44.953263 248.835643,44.069957 247.885,42.95 C246.950867,41.8183597 246.260606,40.5059288 245.8575,39.095 C245.407391,37.5428457 245.185071,35.9335528 245.1975,34.3175 C245.192087,32.6779562 245.463396,31.0492545 246,29.5 C246.485462,28.06448 247.237829,26.7336298 248.2175,25.5775 C249.183019,24.4502302 250.382487,23.5467904 251.7325,22.93 C253.215145,22.2660869 254.825742,21.9366272 256.45,21.965 C259.815,21.965 262.456667,23.0641667 264.375,25.2625 C266.293333,27.4608333 267.236667,30.6525 267.205,34.8375 L248.2275,34.845 Z M264.175146,32.595 C264.180836,31.5067997 264.012023,30.4247122 263.675,29.39 C263.369039,28.4322942 262.87145,27.5468401 262.2125,26.7875 C261.539072,26.03476 260.709882,25.4376068 259.7825,25.0375 C258.723859,24.5880188 257.582419,24.3665454 256.4325,24.3875 C255.288192,24.3643618 254.152874,24.5939864 253.1075,25.06 C252.177317,25.4880605 251.342501,26.0984455 250.6525,26.855 C249.96522,27.6221536 249.414727,28.5015901 249.025,29.455 C248.613252,30.4594109 248.343166,31.5161964 248.2225,32.595 L264.175146,32.595 Z" id="Shape" fill="#142F5E" fill-rule="nonzero"></path>
            <path d="M272.2175,38.5675 C272.6375,40.5675 273.3925,41.9841667 274.4825,42.8175 C275.5725,43.6508333 277.135,44.0616667 279.17,44.05 C280.036275,44.0676883 280.89977,43.9461407 281.7275,43.69 C282.375555,43.4898731 282.97726,43.1626748 283.4975,42.7275 C283.940694,42.3502365 284.300058,41.8844252 284.5525,41.36 C284.789514,40.8546881 284.911607,40.3031335 284.91,39.745 C284.91,38.6075 284.545,37.765 283.8125,37.21 C282.983919,36.6106636 282.051541,36.1699032 281.0625,35.91 C279.880556,35.5791182 278.682288,35.3095915 277.4725,35.1025 C276.244501,34.8977236 275.041859,34.5624924 273.885,34.1025 C272.828444,33.6871811 271.885834,33.0264972 271.135,32.175 C270.403333,31.3416667 270.036667,30.1608333 270.035,28.6325 C269.985032,26.799643 270.768275,25.0428635 272.165,23.855 C273.585,22.615 275.595833,21.9941667 278.1975,21.9925 C280.709167,21.9925 282.75,22.5533333 284.32,23.675 C285.89,24.7966667 286.839167,26.6733333 287.1675,29.305 L284.4325,29.305 C284.1925,27.51 283.5125,26.2466667 282.3925,25.515 C281.2725,24.7833333 279.855833,24.4166667 278.1425,24.415 C276.440833,24.415 275.140833,24.7816667 274.2425,25.515 C273.361218,26.2118452 272.861511,27.2844999 272.895,28.4075 C272.895,29.455 273.2625,30.2525 273.995,30.8075 C274.828132,31.4095868 275.758251,31.8644996 276.745,32.1525 C277.853333,32.4975 279.05,32.8041667 280.335,33.0725 C281.568134,33.3243895 282.770802,33.7073995 283.9225,34.215 C284.973837,34.6735154 285.912365,35.3560818 286.6725,36.215 C287.404167,37.0483333 287.770833,38.215 287.7725,39.715 C287.791999,40.7398066 287.544746,41.7520793 287.055,42.6525 C286.573082,43.5077532 285.896476,44.237459 285.08,44.7825 C284.169645,45.38218 283.159681,45.8147799 282.0975,46.06 C280.856149,46.3555036 279.583486,46.4990559 278.3075,46.4875 C277.062565,46.5090645 275.824085,46.304063 274.6525,45.8825 C273.643549,45.5115035 272.720654,44.9390536 271.94,44.2 C271.196744,43.4908841 270.60188,42.6410792 270.19,41.7 C269.765146,40.7203735 269.522022,39.6716381 269.4725,38.605 L272.2175,38.5675 Z" id="Path" fill="#142F5E"></path>
            <polygon id="Path" fill="#142F5E" points="299.0775 43.3225 299.0775 22.615 290.15 22.615 290.15 25.1475 296.2675 25.1475 296.2675 43.3225 290.15 43.3225 290.15 45.835 305.075 45.835 305.075 43.3225"></polygon>
            <path d="M324.855,22.6025 L327.5475,22.6025 L327.5475,43.6025 C327.553209,45.1027801 327.394767,46.5991821 327.075,48.065 C326.791469,49.4218071 326.217482,50.701124 325.3925,51.815 C324.5219,52.9403622 323.380628,53.8270627 322.075,54.3925 C320.67,55.0358333 318.860833,55.3575 316.6475,55.3575 C315.156358,55.3897399 313.670475,55.1699847 312.2525,54.7075 C311.162125,54.346607 310.145835,53.7918824 309.2525,53.07 C308.522439,52.4705522 307.919765,51.7310225 307.48,50.895 C307.107696,50.209739 306.886084,49.4528479 306.83,48.675 L309.7,48.675 C309.87041,49.4506592 310.212076,50.1784084 310.7,50.805 C311.133101,51.3459028 311.675841,51.7889554 312.2925,52.105 C312.933766,52.4283845 313.622356,52.6477882 314.3325,52.755 C315.103983,52.8768707 315.883953,52.9370612 316.665,52.935 C318.498333,52.935 319.963333,52.6208333 321.06,51.9925 C322.106022,51.4188665 322.971677,50.5653305 323.56,49.5275 C324.145138,48.4573519 324.517813,47.2841483 324.6575,46.0725 C324.823696,44.7644265 324.891386,43.4457156 324.86,42.1275 C324.018352,43.5388419 322.777963,44.6696312 321.295,45.3775 C319.822539,46.1017021 318.203418,46.478043 316.5625,46.4775 C314.971861,46.5189567 313.394711,46.1759116 311.965,45.4775 C310.700987,44.8343133 309.597908,43.9149379 308.7375,42.7875 C307.859076,41.6116276 307.211791,40.2797295 306.83,38.8625 C306.408817,37.3434447 306.197688,35.7738569 306.2025,34.1975 C306.192408,32.5792766 306.388144,30.9663386 306.785,29.3975 C307.132543,27.9906589 307.766591,26.6706464 308.6475,25.52 C309.513155,24.4166718 310.626562,23.5327977 311.8975,22.94 C313.214167,22.3133333 314.814167,21.9991667 316.6975,21.9975 C317.470567,22.000987 318.239763,22.1069091 318.985,22.3125 C319.771088,22.5263228 320.530806,22.8273591 321.25,23.21 C321.990076,23.6039002 322.669554,24.102352 323.2675,24.69 C323.872508,25.2776637 324.378985,25.9588754 324.7675,26.7075 L324.8575,26.7075 L324.855,22.6025 Z M324.855,34.3075 C324.865068,32.981683 324.69176,31.6608415 324.34,30.3825 C324.03525,29.2532726 323.526917,28.1891634 322.84,27.2425 C322.188308,26.3674403 321.344034,25.6540412 320.3725,25.1575 C319.328209,24.6409587 318.174814,24.3836958 317.01,24.4075 C315.933284,24.3957935 314.865285,24.6015704 313.87,25.0125 C312.919125,25.4170831 312.06648,26.0216083 311.37,26.785 C310.623872,27.6117222 310.051687,28.5801004 309.6875,29.6325 C309.264196,30.8814153 309.059527,32.1939977 309.0825,33.5125 C309.014792,34.8908467 309.135914,36.2719781 309.4425,37.6175 C309.707219,38.8109487 310.194012,39.9439716 310.8775,40.9575 C311.517951,41.9013516 312.37521,42.6780282 313.3775,43.2225 C314.499234,43.8003311 315.748625,44.0858078 317.01,44.0525 C318.156871,44.0720856 319.290156,43.8020919 320.305,43.2675 C321.270035,42.7514234 322.111835,42.0324392 322.7725,41.16 C323.469342,40.229223 323.993484,39.1809399 324.32,38.065 C324.683232,36.8458625 324.863529,35.5795695 324.855,34.3075 Z" id="Shape" fill="#142F5E" fill-rule="nonzero"></path>
            <path d="M334.25,45.835 L331.5575,45.835 L331.5575,22.6025 L334.25,22.6025 L334.25,25.83 C335.240672,24.7651635 336.363053,23.8309663 337.59,23.05 C338.843313,22.304912 340.282521,21.9312381 341.74,21.9725 C343.109215,21.9622992 344.467484,22.2169745 345.74,22.7225 C347.007478,23.2519633 348.086021,24.151039 348.835,25.3025 C349.371773,26.0691351 349.714887,26.9543685 349.835,27.8825 C349.941639,28.7952626 349.99423,29.7135308 349.9925,30.6325 L349.992541,45.8375 L347.3025,45.8375 L347.3025,30.675 C347.3025,28.5833333 346.838333,27.0133333 345.91,25.965 C344.981667,24.9166667 343.4425,24.3933333 341.2925,24.395 C340.513293,24.3850931 339.738595,24.5146327 339.005,24.7775 C338.337971,25.0165369 337.710255,25.3535659 337.1425,25.7775 C336.60299,26.1830032 336.126927,26.6666492 335.73,27.2125 C335.350069,27.7345114 335.047763,28.3088085 334.8325,28.9175 C334.57428,29.6106088 334.406236,30.334038 334.3325,31.07 C334.2725,31.76 334.2425,32.505 334.2425,33.32 L334.25,45.835 Z" id="Path" fill="#142F5E"></path>
            <circle id="Oval" fill="#142F5E" cx="295.925" cy="16.4675" r="2.0625"></circle>
        </g>
    </g>
</svg>